<svg width="19" height="22" viewBox="0 0 19 22" fill="none" xmlns="http://www.w3.org/2000/svg">
<path fill-rule="evenodd" clip-rule="evenodd" d="M11 6C11.5523 6 12 6.44772 12 7C12 9.30849 12.5108 10.7424 13.3842 11.6158C14.2576 12.4892 15.6915 13 18 13C18.5523 13 19 13.4477 19 14C19 14.5523 18.5523 15 18 15C15.6915 15 14.2576 15.5108 13.3842 16.3842C12.5108 17.2576 12 18.6915 12 21C12 21.5523 11.5523 22 11 22C10.4477 22 10 21.5523 10 21C10 18.6915 9.48919 17.2576 8.61581 16.3842C7.74243 15.5108 6.30849 15 4 15C3.44772 15 3 14.5523 3 14C3 13.4477 3.44772 13 4 13C6.30849 13 7.74243 12.4892 8.61581 11.6158C9.48919 10.7424 10 9.30849 10 7C10 6.44772 10.4477 6 11 6ZM11 11.7334C10.7361 12.212 10.4147 12.6453 10.03 13.03C9.64533 13.4147 9.21199 13.7361 8.73342 14C9.21199 14.2639 9.64533 14.5853 10.03 14.97C10.4147 15.3547 10.7361 15.788 11 16.2666C11.2639 15.788 11.5853 15.3547 11.97 14.97C12.3547 14.5853 12.788 14.2639 13.2666 14C12.788 13.7361 12.3547 13.4147 11.97 13.03C11.5853 12.6453 11.2639 12.212 11 11.7334Z" fill="#972AF7"/>
<path d="M4 4.5C4 4.22386 3.77614 4 3.5 4C3.22386 4 3 4.22386 3 4.5C3 5.48063 2.78279 6.0726 2.4277 6.4277C2.0726 6.78279 1.48063 7 0.5 7C0.223858 7 0 7.22386 0 7.5C0 7.77614 0.223858 8 0.5 8C1.48063 8 2.0726 8.21721 2.4277 8.5723C2.78279 8.9274 3 9.51937 3 10.5C3 10.7761 3.22386 11 3.5 11C3.77614 11 4 10.7761 4 10.5C4 9.51937 4.21721 8.9274 4.5723 8.5723C4.9274 8.21721 5.51937 8 6.5 8C6.77614 8 7 7.77614 7 7.5C7 7.22386 6.77614 7 6.5 7C5.51937 7 4.9274 6.78279 4.5723 6.4277C4.21721 6.0726 4 5.48063 4 4.5Z" fill="#972AF7"/>
<path d="M9 0.5C9 0.223858 8.77614 0 8.5 0C8.22386 0 8 0.223858 8 0.5C8 1.13341 7.85918 1.47538 7.66728 1.66728C7.47538 1.85918 7.13341 2 6.5 2C6.22386 2 6 2.22386 6 2.5C6 2.77614 6.22386 3 6.5 3C7.13341 3 7.47538 3.14082 7.66728 3.33272C7.85918 3.52462 8 3.86659 8 4.5C8 4.77614 8.22386 5 8.5 5C8.77614 5 9 4.77614 9 4.5C9 3.86659 9.14082 3.52462 9.33272 3.33272C9.52462 3.14082 9.86659 3 10.5 3C10.7761 3 11 2.77614 11 2.5C11 2.22386 10.7761 2 10.5 2C9.86659 2 9.52462 1.85918 9.33272 1.66728C9.14082 1.47538 9 1.13341 9 0.5Z" fill="#972AF7"/>
</svg>
